PathFileType	3	(X/Y/Z)	D:\minhoCalibration\240510\subject2_KPNP\preferred\preferred15.trc
DataRate	CameraRate	NumFrames	NumMarkers	Units	OrigDataRate	OrigDataStartFrame	OrigNumFrames
200.0	200.0	27	10	mm	200.0	282	186	
Frame#	Time	Left_Ankle_Outer1			Left_Ankle_Inner1			Left_Knee_Outer1			Left_Knee_Inner1			Left_Wrist1			Right_Wrist1			Right_Knee_Inner1			Right_Knee_Outer1			Right_Ankle_Inner1			Right_Ankle_Outer1			
		X1	Y1	Z1	X2	Y2	Z2	X3	Y3	Z3	X4	Y4	Z4	X5	Y5	Z5	X6	Y6	Z6	X7	Y7	Z7	X8	Y8	Z8	X9	Y9	Z9	X10	Y10	Z10	
282	1.4	-624.88971	97.718399	-815.47125	-643.47284	102.46251	-765.13843	-399.32706	495.58502	-806.44897	-451.36377	483.12503	-722.90448	-439.63757	968.1889	-890.18744	-719.4668	1050.577	-704.90289	-792.91632	604.01825	-449.2915	-868.9024	673.84821	-456.67023	-868.3576	462.7316	-839.08264	-956.19843	512.98346	-843.56885
283	1.405	-624.27808	99.039528	-815.91644	-641.49115	105.27168	-761.28223	-398.9249	496.79883	-808.89899	-450.56119	484.40384	-724.84656	-439.27121	969.01013	-894.10254	-710.8913	1055.6239	-698.50647	-780.36987	616.01636	-431.17169	-856.04535	687.32935	-436.26871	-864.72662	480.87799	-821.90784	-950.3103	533.26605	-824.42114
284	1.41	-623.60602	100.5972	-816.4494	-640.08832	107.99569	-759.51282	-398.31021	498.0618	-811.36206	-449.52231	485.89517	-726.78033	-439.32895	969.79907	-898.12494	-702.42828	1060.783	-692.41968	-766.93695	628.60345	-413.90982	-842.02155	700.34143	-419.11639	-861.15582	498.41928	-804.10535	-947.9234	550.06854	-803.71478
285	1.415	-622.97845	101.8801	-816.76868	-638.55927	108.91865	-761.9082	-397.33176	499.45908	-814.08746	-447.66965	487.95773	-728.45074	-439.85474	970.28162	-902.26624	-693.86987	1065.9442	-686.70209	-752.85785	641.35669	-396.57193	-827.51532	714.61029	-400.01889	-857.53601	515.93146	-786.15186	-941.34161	570.90216	-784.08472
286	1.42	-622.43549	103.32155	-816.72961	-637.79913	108.9623	-765.41772	-396.32266	500.70392	-816.94995	-445.9024	489.646	-730.71503	-440.2821	971.04077	-906.5697	-685.34546	1071.2462	-681.47003	-738.45728	654.81982	-379.72455	-812.21039	728.5509	-382.61298	-854.12317	533.44501	-767.81128	-937.02826	589.45795	-763.40955
287	1.425	-622.03625	105.0543	-816.32605	-636.82159	111.87939	-762.11816	-394.59875	502.11786	-820.26672	-443.50879	491.24118	-732.87787	-442.0636	971.28918	-910.49921	-676.95746	1076.5488	-676.70215	-723.31274	668.65234	-363.52261	-795.66882	744.01093	-365.11255	-851.06848	550.77478	-749.17035	-933.61682	606.95612	-742.61017
288	1.43	-621.77936	107.04305	-815.65253	-635.69092	112.52685	-764.68408	-392.74625	503.35019	-823.91748	-440.40039	492.69077	-735.13306	-444.03662	971.44672	-914.46649	-668.7218	1082.0068	-672.07263	-707.87897	682.92676	-347.5874	-778.88098	759.27313	-349.0592	-848.26923	568.04932	-730.13965	-930.40027	625.79364	-719.61621
289	1.435	-621.56586	108.6549	-813.94513	-634.38153	116.58113	-759.94965	-390.29498	504.74643	-827.96564	-436.40399	493.93945	-737.4939	-446.59003	971.38074	-918.3252	-660.4292	1087.3613	-668.01031	-691.53064	697.69324	-332.34427	-760.87549	775.46722	-333.20074	-845.81885	584.96112	-710.62952	-926.50922	645.24274	-696.92114
290	1.44	-621.67474	111.48468	-813.14539	-632.88574	120.63387	-755.72424	-387.28897	506.26773	-832.68561	-431.48547	494.99326	-740.05444	-449.76633	971.05524	-921.95209	-652.20197	1092.6959	-664.32294	-674.41071	712.82556	-317.94458	-743.06342	793.40491	-314.59979	-843.72211	601.8952	-690.49866	-921.96442	662.35974	-675.03326
291	1.445	-621.56042	113.8481	-811.04749	-630.81921	123.65287	-755.06531	-384.74924	506.99716	-837.53107	-425.56451	495.32605	-742.49652	-453.53015	970.56158	-925.40558	-644.07581	1098.134	-661.02094	-656.61444	728.24634	-304.41449	-723.36078	810.48242	-300.27701	-841.89899	618.4801	-669.67194	-918.35052	680.83362	-651.35004
292	1.45	-621.36798	116.85516	-809.19879	-629.09509	124.74142	-757.37317	-381.28418	508.46237	-843.27545	-418.56058	495.96414	-746.29895	-457.84818	969.83099	-928.61194	-635.94104	1103.3169	-658.03595	-638.10278	743.90186	-291.70148	-702.66339	827.13458	-287.53418	-840.36127	634.91461	-648.03668	-912.87036	701.47607	-627.14124
293	1.455	-620.76672	120.01157	-807.27032	-625.96063	130.1998	-751.41498	-378.86472	509.17059	-848.95819	-411.15216	496.17368	-750.5575	-462.72433	968.849	-931.4729	-627.82031	1108.3652	-655.38513	-618.82001	759.71112	-280.06894	-680.64117	844.35822	-276.22974	-839.27295	651.24469	-626.22949	-909.62952	718.56506	-598.43024
294	1.46	-619.74811	123.10084	-805.33136	-623.24426	132.04338	-752.37335	-376.5545	510.29898	-855.0293	-402.99121	496.15808	-755.65259	-468.20068	967.53693	-934.07104	-620.01575	1113.1836	-653.02631	-598.94891	775.65924	-269.56717	-657.72266	862.32373	-265.12668	-838.32434	667.06311	-603.36206	-904.37848	738.00421	-575.35022
295	1.465	-618.35059	126.55338	-804.04608	-620.28601	137.73357	-746.05621	-374.60632	511.74719	-861.18488	-395.07758	496.56219	-761.34271	-473.74747	966.29205	-936.4021	-611.9776	1117.8376	-651.02856	-578.57129	791.53137	-260.3114	-633.86829	880.84485	-255.11414	-836.94916	682.22491	-578.52289	-900.80939	753.9657	-554.13745
296	1.47	-616.55927	129.20334	-802.8548	-615.99835	138.19934	-748.83484	-373.5386	513.28217	-867.16071	-387.35794	497.17004	-767.79626	-480.68921	964.31488	-937.43774	-604.21344	1122.3392	-649.3114	-557.70221	807.54053	-252.37943	-610.41852	898.901	-245.84006	-835.42444	699.20477	-555.60968	-896.2832	773.00378	-525.44904
297	1.475	-614.2323	131.50784	-802.01245	-612.24005	142.43764	-745.27094	-373.28995	514.96533	-872.81738	-380.15561	498.03098	-774.63348	-486.47739	962.71228	-940.02594	-596.78815	1126.6394	-647.69598	-536.47235	823.32275	-245.78229	-585.35345	915.64636	-240.81841	-835.37219	712.40363	-526.00677	-890.86493	791.18945	-498.28809
298	1.48	-611.46136	133.33223	-801.64215	-608.08252	143.32608	-747.43774	-373.76389	516.81421	-878.12659	-373.63895	499.15302	-781.65924	-493.26297	960.89374	-940.4837	-589.62103	1130.7927	-646.33643	-515.09161	838.76526	-240.71898	-560.45648	933.05945	-235.53667	-833.97742	726.78998	-495.26605	-885.01996	809.1698	-469.85495
299	1.485	-609.16418	134.74521	-802.01562	-605.16003	144.35912	-748.43872	-374.95493	518.87622	-882.90906	-368.42511	500.56934	-788.24274	-500.20023	958.71106	-940.88007	-582.21869	1134.6635	-645.35327	-493.56393	853.65546	-237.16977	-535.91046	949.25696	-232.36234	-833.54199	742.32996	-464.31845	-879.31293	827.4411	-437.6777
300	1.49	-607.22449	136.31548	-803.1712	-602.15045	148.12361	-746.50421	-376.98566	520.76843	-887.05768	-364.28241	502.35175	-794.10516	-507.74002	956.15161	-939.80719	-574.72363	1138.0785	-644.46381	-472.21887	867.81006	-235.11507	-511.17563	964.23676	-231.50005	-830.77777	756.99664	-434.19177	-872.27856	844.59766	-408.02402
301	1.495	-605.26337	137.22079	-804.28351	-599.60266	148.89616	-748.49457	-379.32333	522.69598	-890.58789	-361.72333	504.3428	-798.39319	-514.30835	954.18854	-939.11871	-568.01685	1141.1909	-643.75427	-451.35431	881.12366	-234.38208	-486.45258	978.43347	-232.41406	-827.29602	771.58307	-401.06815	-864.28198	861.62756	-376.11234
302	1.5	-604.16687	138.01648	-805.90601	-598.17798	148.44609	-752.42542	-381.94666	524.60608	-893.13416	-360.62961	506.30289	-801.10577	-520.9964	951.8576	-937.76373	-562.08441	1144.17	-643.46899	-431.16113	893.52289	-234.89874	-462.6684	991.10608	-235.19128	-823.22784	786.96429	-364.1344	-855.12091	879.4848	-340.8768
303	1.505	-603.47064	138.90454	-807.92822	-597.06995	150.53082	-752.99512	-384.40985	526.3847	-894.89276	-360.80838	508.0954	-802.32184	-527.0177	949.58246	-936.81982	-556.17725	1147.0336	-643.17151	-411.51901	904.91626	-236.67035	-440.07077	1002.5967	-238.94586	-816.42786	802.52441	-326.6192	-843.91846	896.99597	-305.12833
304	1.51	-602.9173	138.79021	-809.6236	-596.80707	150.76216	-755.02332	-386.24487	528.16974	-895.8454	-362.16116	509.62366	-802.34106	-532.67542	947.539	-934.3927	-551.09235	1149.6771	-643.12311	-393.08716	915.37433	-239.74216	-418.71539	1012.3997	-244.21915	-807.27826	818.38135	-287.3334	-830.59686	914.55933	-268.0903
305	1.515	-602.93237	138.66338	-811.64508	-597.33905	151.06905	-755.9176	-388.13712	529.64374	-895.46741	-364.29675	510.97195	-801.46576	-538.12433	945.26117	-931.76733	-546.28363	1152.219	-643.11542	-375.81567	924.29205	-243.29231	-398.83557	1020.5897	-250.59337	-795.11371	834.71649	-246.61995	-814.33844	932.44653	-230.46794
306	1.52	-603.17169	137.89153	-813.14978	-597.20679	149.63768	-759.03912	-389.69687	530.90045	-894.56152	-367.20248	511.89066	-799.83081	-542.96576	943.17877	-928.81995	-542.00085	1154.621	-643.28754	-359.97577	931.72021	-247.69456	-381.03403	1027.14	-257.45642	-779.96051	851.53833	-204.08875	-795.7547	950.47534	-190.90259
307	1.525	-603.78076	136.76207	-814.16266	-599.41803	149.26561	-758.08344	-390.48358	532.2926	-893.40503	-370.61823	512.60541	-797.69965	-547.53497	940.94855	-925.46985	-538.15546	1156.8679	-643.48798	-345.89688	937.7002	-252.66728	-364.94193	1032.1852	-264.65594	-761.11707	868.69489	-161.7935	-773.78613	968.52161	-151.41284
308	1.53	-604.67047	135.35925	-814.35889	-599.99713	148.46281	-758.20337	-391.68524	533.23029	-891.315	-374.44211	512.80902	-795.10968	-550.88049	939.42773	-922.57025	-534.88251	1158.9513	-643.76654	-333.61603	942.30615	-257.80356	-350.91058	1035.8446	-271.8609	-739.26831	885.78821	-118.95003	-748.24268	986.59711	-112.02418
